<?xml version="1.0" encoding="UTF-8"?>
<svg version="1.1" xmlns="http://www.w3.org/2000/svg" width="562" height="551">
<path d="M0 0 C1.47654726 1.00723577 2.9390275 2.03525376 4.390625 3.078125 C7.32968213 5.11593047 10.36156724 6.86400832 13.4765625 8.62109375 C18.92385923 11.69540716 24.33706487 14.82142529 29.7265625 17.99609375 C30.39880859 18.39151367 31.07105469 18.78693359 31.76367188 19.19433594 C37.18585037 22.39020694 42.58208054 25.62875481 47.9765625 28.87109375 C49.52595629 29.80092354 51.07543386 30.73061371 52.625 31.66015625 C55.05357198 33.11709574 57.4819221 34.57439909 59.90966797 36.03271484 C64.48389322 38.77961437 69.06234017 41.51905446 73.6484375 44.24609375 C74.56189941 44.79056152 75.47536133 45.3350293 76.41650391 45.89599609 C78.17777762 46.94558583 79.94042913 47.9928677 81.70458984 49.03759766 C82.49816895 49.51116699 83.29174805 49.98473633 84.109375 50.47265625 C84.80949707 50.88854004 85.50961914 51.30442383 86.23095703 51.73291016 C87.9765625 52.87109375 87.9765625 52.87109375 89.9765625 54.87109375 C90.25059128 57.54956341 90.25059128 57.54956341 90.28436279 61.02482605 C90.30156372 62.33848145 90.31876465 63.65213684 90.33648682 65.00559998 C90.34535766 66.47012171 90.35395434 67.93464513 90.36230469 69.39916992 C90.37810463 70.93489324 90.39464241 72.47060912 90.41186523 74.00631714 C90.46433808 79.05882663 90.49492704 84.11136951 90.5234375 89.1640625 C90.53415621 90.90299311 90.54491123 92.64192349 90.55570221 94.38085365 C90.5989677 101.61502172 90.63643993 108.8491808 90.65894699 116.08344555 C90.69141741 126.45227121 90.75773604 136.81959679 90.87174869 147.18785685 C90.94917006 154.47711843 90.98821481 161.76597906 90.99878812 169.055641 C91.00609392 173.40989341 91.03010935 177.76254672 91.09499359 182.11635399 C91.1552018 186.21527469 91.16776997 190.31163142 91.14422607 194.41090012 C91.14378487 195.91257482 91.16037665 197.41436908 91.19553375 198.91563225 C91.44607665 210.23330045 91.44607665 210.23330045 87.82804108 214.2656498 C85.28072878 216.08049151 82.78324483 217.5000729 79.9765625 218.87109375 C78.49069925 219.75577549 77.01040045 220.6499596 75.5390625 221.55859375 C74.7140625 222.04457031 73.8890625 222.53054688 73.0390625 223.03125 C68.99961286 225.4580112 65.02026452 227.97521379 61.0390625 230.49609375 C60.2255835 231.01099365 59.41210449 231.52589355 58.57397461 232.05639648 C56.0410545 233.66058744 53.50879103 235.26581139 50.9765625 236.87109375 C32.86227071 248.34617885 32.86227071 248.34617885 25.4765625 252.87109375 C20.03446806 256.20612086 14.62563923 259.59187341 9.2265625 262.99609375 C8.44603516 263.48722656 7.66550781 263.97835938 6.86132812 264.484375 C2.20518516 267.42551187 -2.39494455 270.43539002 -6.95263672 273.52709961 C-9.05440188 274.8911903 -11.19674599 276.11370197 -13.3984375 277.30859375 C-19.90998434 280.85213917 -26.13644254 284.85691122 -32.21484375 289.09765625 C-33.79072266 290.19207031 -33.79072266 290.19207031 -35.3984375 291.30859375 C-36.35492188 291.98792969 -37.31140625 292.66726563 -38.296875 293.3671875 C-41.25997036 295.00155958 -42.72288161 295.00426437 -46.0234375 294.87109375 C-46.09205544 259.12443334 -46.14494176 223.37778446 -46.17663349 187.63107179 C-46.18038575 183.41395986 -46.18426871 179.19684806 -46.18823242 174.97973633 C-46.18901935 174.14016051 -46.18980628 173.30058469 -46.19061706 172.43556718 C-46.20368256 158.82876881 -46.22734267 145.22200835 -46.25489589 131.61523249 C-46.28291832 117.66069724 -46.29960705 103.70618187 -46.30570298 89.75161964 C-46.30982601 81.13604116 -46.32286331 72.52056979 -46.3471869 63.90502427 C-46.36300509 58.00263304 -46.36784678 52.10029745 -46.36394163 46.19788655 C-46.36201394 42.78891779 -46.36503599 39.38013662 -46.38105392 35.97120094 C-46.39588021 32.28054982 -46.39242699 28.59036487 -46.38420105 24.89970398 C-46.39293957 23.81508603 -46.4016781 22.73046809 -46.41068143 21.61298293 C-46.40470828 20.62817563 -46.39873514 19.64336832 -46.39258099 18.62871838 C-46.39372015 17.77624623 -46.39485931 16.92377409 -46.39603299 16.04546946 C-45.93811267 13.37315899 -45.13843355 12.51512762 -43.0234375 10.87109375 C-40.859375 10.0625 -40.859375 10.0625 -38.3984375 9.43359375 C-33.34679289 8.02587856 -28.76440786 6.08797481 -24.0234375 3.87109375 C-21.69119197 2.82139241 -19.35533405 1.78187929 -17.01171875 0.7578125 C-15.47302661 0.07159813 -13.96045949 -0.6733584 -12.4609375 -1.44140625 C-7.9723013 -2.70743184 -4.02728589 -2.24688344 0 0 Z M0.9765625 58.87109375 C0.9765625 109.36109375 0.9765625 159.85109375 0.9765625 211.87109375 C5.23077995 209.74398502 9.14629955 207.61659869 13.1640625 205.12109375 C13.72794678 204.77111328 14.29183105 204.42113281 14.87280273 204.06054688 C21.50607105 199.95437269 21.50607105 199.95437269 28.03611755 195.68821716 C30.9765625 193.87109375 30.9765625 193.87109375 34.07777405 192.59022522 C37.70365114 190.86314153 40.68850842 189.20360904 42.9765625 185.87109375 C45.33638398 178.55525972 44.63990927 170.39125018 44.53515625 162.8046875 C44.5407044 160.52359354 44.54996237 158.24250585 44.5627594 155.96144104 C44.5759164 151.18851708 44.54634262 146.41829783 44.48608398 141.64575195 C44.41206054 135.53530478 44.44112201 129.43053381 44.50175381 123.32011318 C44.53766046 118.61244764 44.52061046 113.90611436 44.48747444 109.19847298 C44.47764076 106.94628201 44.48379382 104.69396133 44.50637627 102.44186211 C45.12242092 90.45151621 45.12242092 90.45151621 40.54916382 79.97383118 C37.72149239 78.14661579 35.14870635 76.96454072 31.9765625 75.87109375 C30.80706171 75.21139122 29.65150539 74.52516227 28.5234375 73.796875 C25.6750808 72.1538983 22.82654255 70.51125321 19.9765625 68.87109375 C19.23664063 68.4328125 18.49671875 67.99453125 17.734375 67.54296875 C14.57104442 65.52566675 14.57104442 65.52566675 10.9765625 64.87109375 C10.9765625 64.21109375 10.9765625 63.55109375 10.9765625 62.87109375 C9.68742763 62.19954442 8.39516046 61.53400516 7.1015625 60.87109375 C6.38226563 60.49984375 5.66296875 60.12859375 4.921875 59.74609375 C3.02807273 58.73435629 3.02807273 58.73435629 0.9765625 58.87109375 Z " fill="#FAFAFA" transform="translate(430.0234375,196.12890625)"/>
<path d="M0 0 C5.12542023 0.3224234 9.94948993 0.88407698 14.875 2.375 C21.19873763 4.25207486 27.64878098 5.03813406 34.18310547 5.82177734 C35.01986816 5.93215332 35.85663086 6.0425293 36.71875 6.15625 C37.84700195 6.29256836 37.84700195 6.29256836 38.99804688 6.43164062 C41.38966052 7.11062557 42.40741246 8.1297823 44 10 C42.04316458 16.07210332 39.86455388 22.01360273 37.5 27.9375 C35.30355372 33.50129852 33.28777193 39.02113365 31.671875 44.78515625 C30.66595371 48.10118747 29.33671418 51.26845863 28.0234375 54.47265625 C25.57825441 60.51095189 23.45529543 66.67077756 21.33203125 72.828125 C21.03079346 73.69840332 20.72955566 74.56868164 20.41918945 75.46533203 C19.82167532 77.19423481 19.22757078 78.92432105 18.63745117 80.65576172 C16.95479945 85.52379263 15.07753055 90.23086328 12.94580078 94.91943359 C11.62042624 97.83498389 10.38623943 100.7803132 9.1875 103.75 C8.74792969 104.81734375 8.30835938 105.8846875 7.85546875 106.984375 C6.20970815 112.78586897 8.78907481 117.05502404 11.3125 122.25 C11.91368692 123.50476485 12.51393683 124.75997903 13.11328125 126.015625 C13.42072266 126.65918945 13.72816406 127.30275391 14.04492188 127.96582031 C15.7587934 131.61612133 17.37517988 135.30942198 19 139 C19.6428937 140.45327345 20.28611965 141.90639997 20.9296875 143.359375 C21.24711914 144.07625488 21.56455078 144.79313477 21.89160156 145.53173828 C28.6563269 160.92460865 28.6563269 160.92460865 36.04296875 176.0234375 C37.12434962 178.25682002 38.09505632 180.53049031 39.06518555 182.81396484 C41.11176819 187.59983608 43.21842795 192.35977193 45.3125 197.125 C46.00375977 198.7028125 46.00375977 198.7028125 46.70898438 200.3125 C50.05104939 207.91697616 53.5003042 215.46693703 57 223 C59.06371158 227.45777307 61.12548273 231.91644301 63.1875 236.375 C63.96770508 238.05916016 63.96770508 238.05916016 64.76367188 239.77734375 C67.25008033 245.15662333 69.69193056 250.54201209 72 256 C72.78525298 257.7528873 73.57656089 259.50307954 74.375 261.25 C74.81070313 262.20519531 75.24640625 263.16039062 75.6953125 264.14453125 C76.12585938 265.08683594 76.55640625 266.02914063 77 267 C79.38190038 272.22185852 81.75353121 277.44816621 84.10546875 282.68359375 C84.48541992 283.52929932 84.86537109 284.37500488 85.25683594 285.24633789 C86.04299676 286.99666742 86.82880494 288.74715539 87.61425781 290.49780273 C90.3191776 296.51687382 93.08128381 302.50493249 95.90625 308.46875 C96.85167454 310.6567325 97.51706865 312.67314895 98 315 C96.27734375 315.671875 96.27734375 315.671875 94 316 C91.81640625 314.890625 91.81640625 314.890625 89.5625 313.25 C84.63515471 309.71944998 79.50178763 306.70936193 74.25 303.6875 C70.56079134 301.54334454 66.9580543 299.34796961 63.4375 296.9375 C59.42472322 294.20708277 55.25029712 291.92684656 50.97265625 289.640625 C45.52508932 286.63408346 40.25363315 283.33157224 35 280 C33.43572266 279.11248047 33.43572266 279.11248047 31.83984375 278.20703125 C28.41246719 275.54338922 26.99326242 272.7206823 25.375 268.8125 C25.10171875 268.19052734 24.8284375 267.56855469 24.546875 266.92773438 C23.98096797 265.63593258 23.42224287 264.34096475 22.87011719 263.04321289 C19.76571596 255.75344468 16.41612032 248.58547297 13 241.4375 C12.36191406 240.09655273 12.36191406 240.09655273 11.7109375 238.72851562 C9.80269529 234.72764584 7.87829081 230.73937047 5.875 226.78515625 C4.09546979 223.25151131 2.54232855 219.64400826 1 216 C-0.12479555 213.53171718 -1.28070629 211.07841964 -2.4375 208.625 C-4.32709039 204.59832609 -6.21135995 200.57283406 -8 196.5 C-9.95191936 192.06082474 -12.01822736 187.67672309 -14.07983398 183.2878418 C-17.03630853 176.96965113 -19.87234116 170.59898543 -22.71557617 164.22924805 C-25.28720526 158.49978933 -27.99411694 152.87790984 -30.90625 147.3125 C-31.90668903 145.19728605 -32.53447026 143.28532783 -33 141 C-34.794375 141.433125 -34.794375 141.433125 -36.625 141.875 C-37.29789063 142.03742188 -37.97078125 142.19984375 -38.6640625 142.3671875 C-41.47662733 143.12911978 -44.23559128 144.07853043 -47 145 C-47 173.38 -47 201.76 -47 231 C-47.99 231.33 -48.98 231.66 -50 232 C-52.8203125 230.55859375 -52.8203125 230.55859375 -56.125 228.4375 C-56.70685059 228.06834473 -57.28870117 227.69918945 -57.88818359 227.31884766 C-61.17099508 225.22550004 -64.4046747 223.06272099 -67.625 220.875 C-71.69454044 218.11725281 -75.95006721 215.82605114 -80.28515625 213.515625 C-83.66888625 211.62657861 -86.84740665 209.50797145 -90.02734375 207.296875 C-91.96171206 206.02517148 -93.92339994 205.01682355 -96 204 C-96.25708182 181.84284876 -96.45099564 159.68594376 -96.56993389 137.52760315 C-96.62662997 127.23876053 -96.70390904 116.95084509 -96.82983398 106.66259766 C-96.93955228 97.69417321 -97.01045817 88.72642023 -97.03497344 79.75734329 C-97.04930259 75.00883091 -97.08291487 70.26223924 -97.16303062 65.51434326 C-97.23788268 61.04201893 -97.26069397 56.57239953 -97.24418449 52.09950829 C-97.24720289 50.46113549 -97.2689848 48.82266932 -97.31126022 47.18483925 C-97.61474877 34.81710057 -97.61474877 34.81710057 -93.5902195 30.28823853 C-90.81003729 28.24298122 -88.05594433 26.59383688 -85 25 C-83.82225932 24.18239225 -82.65280168 23.35241061 -81.5 22.5 C-79 21 -79 21 -76 21 C-76 20.34 -76 19.68 -76 19 C-73.36299915 17.25858435 -70.70825865 15.62410487 -68 14 C-66.12137571 12.81824198 -64.24648148 11.63053744 -62.375 10.4375 C-61.44300781 9.84710938 -60.51101562 9.25671875 -59.55078125 8.6484375 C-57.51343731 7.33180788 -55.53566804 5.97119212 -53.5625 4.5625 C-51 3 -51 3 -47 3 C-47 31.38 -47 59.76 -47 89 C-37.76475939 86.17871349 -37.76475939 86.17871349 -29.12792969 79.25439453 C-28.89493164 78.55427246 -28.66193359 77.85415039 -28.421875 77.1328125 C-28.15181641 76.33987793 -27.88175781 75.54694336 -27.60351562 74.72998047 C-27.32185547 73.87033691 -27.04019531 73.01069336 -26.75 72.125 C-26.13036785 70.29682093 -25.51057164 68.46869745 -24.890625 66.640625 C-24.57673828 65.70283203 -24.26285156 64.76503906 -23.93945312 63.79882812 C-22.4899019 59.48031065 -21.0000278 55.17620806 -19.5 50.875 C-19.21374756 50.05281982 -18.92749512 49.23063965 -18.63256836 48.38354492 C-16.10776581 41.18994574 -13.35875641 34.09311069 -10.56640625 27 C-7.69785587 19.70759903 -5.04842081 12.35494658 -2.7109375 4.875 C-2 3 -2 3 0 0 Z " fill="#F9F9F9" transform="translate(141,214)"/>
<path d="M0 0 C-0.19335938 0.79921875 -0.38671875 1.5984375 -0.5859375 2.421875 C-1.8865867 7.90778152 -3.11313127 13.36826503 -4 18.9375 C-5.34423179 27.34728073 -6.89769714 35.7547251 -9.5 43.875 C-11.01435143 48.69267761 -11.91528077 53.57976405 -12.80249023 58.54101562 C-13.9005364 64.63037457 -15.22010454 70.65748925 -16.58740234 76.69140625 C-17.47572202 80.61817328 -18.31818592 84.54273015 -19.0625 88.5 C-19.6707189 91.64246432 -20.47182156 94.63615523 -21.4375 97.6875 C-23.07387066 102.94668134 -24.07790472 108.26760455 -25.1171875 113.671875 C-26.10753211 118.66808163 -27.30384374 123.61224652 -28.5 128.5625 C-30.17812195 135.51657791 -31.782139 142.47527423 -33.25390625 149.4765625 C-36.11116046 162.96998292 -39.15839893 176.42947881 -42.4140625 189.83203125 C-44.89122564 200.04375746 -47.31440968 210.22597038 -49.29296875 220.546875 C-50.06783585 224.33130882 -50.98161554 228.07081716 -51.9375 231.8125 C-53.29509354 237.128363 -54.57642326 242.4524688 -55.75 247.8125 C-58.02804758 258.20412574 -60.39869412 268.57442655 -62.78710938 278.94116211 C-64.4322166 286.08992422 -66.06183041 293.24066168 -67.62030029 300.40888977 C-68.32048372 303.62559911 -69.03056461 306.84008911 -69.74133301 310.05447388 C-70.07790712 311.5899166 -70.40961014 313.12643594 -70.73620605 314.66403198 C-71.19194467 316.8075946 -71.66448366 318.94682881 -72.140625 321.0859375 C-72.40391602 322.3032959 -72.66720703 323.5206543 -72.93847656 324.77490234 C-74.73565678 330.23505658 -78.28360105 333.81643071 -83 337 C-84.32 337 -85.64 337 -87 337 C-89.59720949 326.73549652 -92.09537053 316.45237108 -94.5 306.14111328 C-95.32857753 302.59295658 -96.16460519 299.04655661 -97 295.5 C-97.97845039 291.34419061 -98.95629177 287.18824658 -99.9296875 283.03125 C-100.24469322 281.68747692 -100.55979874 280.34372723 -100.875 279 C-101.11259033 277.98667603 -101.11259033 277.98667603 -101.35498047 276.95288086 C-102.39323251 272.53905335 -103.44969096 268.12988353 -104.515625 263.72265625 C-104.78133301 262.62244141 -105.04704102 261.52222656 -105.32080078 260.38867188 C-105.84349707 258.2267975 -106.36782084 256.06531573 -106.89404297 253.90429688 C-108.00853535 249.29311227 -109.08575189 244.68817974 -109.9921875 240.03125 C-111.14366496 234.12210387 -112.57418021 228.28547871 -114 222.4375 C-115.55520139 216.03576756 -117.10578371 209.63659407 -118.51708984 203.20141602 C-121.09715239 191.43982653 -123.81377245 179.70827586 -126.625 168 C-128.78342355 159.00062592 -130.76652334 149.97819977 -132.63671875 140.9140625 C-134.52129361 131.91603456 -136.6598691 122.98731758 -138.84301758 114.05737305 C-140.17561249 108.57566994 -141.39746868 103.09660827 -142.47485352 97.55957031 C-143.4940504 92.5919924 -144.73345437 87.67536741 -145.9375 82.75 C-148.09081616 73.85575544 -150.15195957 64.96299608 -152 56 C-152.45696052 53.81274491 -152.91588527 51.62591033 -153.37548828 49.43920898 C-153.70804794 47.85686868 -154.03975607 46.27434917 -154.37060547 44.69165039 C-155.34242882 40.05904539 -156.3420214 35.43361136 -157.3671875 30.8125 C-157.59680176 29.77343506 -157.82641602 28.73437012 -158.06298828 27.66381836 C-158.51352793 25.62998568 -158.96751089 23.59691205 -159.42529297 21.56469727 C-159.63041504 20.63713623 -159.83553711 19.7095752 -160.046875 18.75390625 C-160.23088867 17.93220947 -160.41490234 17.1105127 -160.60449219 16.26391602 C-161 14 -161 14 -161 10 C-158.05602504 9.14340057 -155.52260626 8.90195959 -152.46264648 8.99072266 C-151.57169785 9.01470123 -150.68074921 9.03867981 -149.76280212 9.06338501 C-148.80853836 9.09660858 -147.8542746 9.12983215 -146.87109375 9.1640625 C-145.88504654 9.19801117 -144.89899933 9.23195984 -143.8830719 9.26693726 C-141.80090319 9.34252737 -139.71886425 9.42176792 -137.63696289 9.50439453 C-135.50257687 9.58485136 -133.36775624 9.65450006 -131.23266602 9.71337891 C-128.15246706 9.79835319 -125.0749372 9.91501674 -121.99609375 10.0390625 C-121.03980576 10.06014069 -120.08351776 10.08121887 -119.09825134 10.10293579 C-116.62919614 10.22222167 -114.39120317 10.37370012 -112 11 C-108.99146151 14.42726169 -108.52624759 17.66285899 -108 22.125 C-107.29668674 27.3039431 -106.22243201 32.1409366 -104.78125 37.15625 C-102.14800765 46.74125215 -100.45361371 56.61935434 -98.53344727 66.36889648 C-96.13539404 78.49342378 -93.43976855 90.54052141 -90.58203125 102.5635376 C-87.62202269 115.02081986 -84.70970084 127.48546061 -82 140 C-81.81824219 139.09121094 -81.63648438 138.18242187 -81.44921875 137.24609375 C-81.05769229 135.28846146 -80.66607841 133.33084622 -80.27294922 131.37353516 C-79.60647038 128.05185362 -78.9479926 124.72938524 -78.30859375 121.40234375 C-75.53378844 107.08434834 -72.00449766 92.94162118 -68.44726562 78.80126953 C-63.44339795 58.86115828 -58.97235651 38.78191201 -55.25585938 18.56152344 C-55.10439453 17.74200195 -54.95292969 16.92248047 -54.796875 16.078125 C-54.66635742 15.36043945 -54.53583984 14.64275391 -54.40136719 13.90332031 C-54 12 -54 12 -53 9 C-52.00484375 8.82984375 -51.0096875 8.6596875 -49.984375 8.484375 C-40.20885395 6.79526169 -30.47654777 4.93494744 -20.75390625 2.96484375 C-19.59012451 2.73063721 -19.59012451 2.73063721 -18.40283203 2.49169922 C-16.72981713 2.14934482 -15.05903676 1.79596326 -13.39013672 1.43408203 C-8.84427872 0.46816154 -4.67926478 -0.24627709 0 0 Z " fill="#F9F9F9" transform="translate(366,214)"/>
<path d="M0 0 C1.80219165 1.58962545 2.58485499 3.15062652 3.5234375 5.34375 C-0.32174202 5.41120929 -3.85188333 5.44032617 -7.66015625 4.8515625 C-12.12833458 4.25702495 -16.47479004 4.15277775 -20.9765625 4.15625 C-21.84571289 4.15560547 -22.71486328 4.15496094 -23.61035156 4.15429688 C-31.36071014 4.21682269 -38.83854765 5.04760203 -46.4765625 6.34375 C-44.59396953 10.72422243 -41.77142535 12.50435177 -37.4765625 14.34375 C-22.1915314 17.94022791 -6.12210019 13.58096977 8.84765625 10.34375 C10.40610716 10.0097495 11.9647026 9.67642264 13.5234375 9.34375 C14.30912109 9.17439941 15.09480469 9.00504883 15.90429688 8.83056641 C37.13123747 4.39768213 66.97725446 -1.55926192 86.59375 10.83984375 C93.13593346 15.938509 96.64951593 21.32288825 98.5234375 29.34375 C98.77738281 30.354375 99.03132812 31.365 99.29296875 32.40625 C101.53499336 42.30208274 102.29985378 52.21040724 103.05078125 62.30859375 C103.46025248 67.77429568 104.02837778 73.21105832 104.6484375 78.65625 C105.38625665 85.2483989 105.7346723 91.7047064 105.5234375 98.34375 C98.98600802 102.3062909 92.40718684 105.04559993 85.1484375 107.40625 C84.09479004 107.75131592 83.04114258 108.09638184 81.95556641 108.4519043 C44.20053754 120.52403624 3.97750254 121.36693219 -35.1640625 117.53125 C-36.02752289 117.44847809 -36.89098328 117.36570618 -37.78060913 117.28042603 C-47.15716001 116.36507078 -56.29178602 115.17886807 -65.47045898 113.00854492 C-68.58902926 112.31887816 -71.68381701 111.8680045 -74.8515625 111.46875 C-86.8927771 109.70446947 -101.88107594 105.9942055 -111.4765625 98.34375 C-110.93235197 93.06375001 -110.02799555 88.40635578 -108.3515625 83.34375 C-106.47675319 77.58264598 -104.73344413 71.79938702 -103.08032227 65.97070312 C-99.07883127 51.90083373 -94.40802917 38.11221842 -89.4765625 24.34375 C-89.02917725 23.08087158 -89.02917725 23.08087158 -88.57275391 21.79248047 C-80.53158464 -0.84913436 -80.53158464 -0.84913436 -69.7890625 -6.78125 C-50.04073473 -16.05310814 -18.0622661 -11.2793898 0 0 Z " fill="#FDFDFD" transform="translate(280.4765625,19.65625)"/>
<path d="M0 0 C17.4040906 0.5794703 17.4040906 0.5794703 24.109375 3.25390625 C26.27625651 4.16353597 26.27625651 4.16353597 29.8125 4.875 C39.92426296 7.34275167 53.84508496 12.35713296 59.6875 21.5 C61.19467791 25.51914109 61.74484898 27.75436079 61 32 C57.99129834 37.38887318 53.84843484 41.28630523 49 45 C47.9171875 45.9590625 47.9171875 45.9590625 46.8125 46.9375 C16.30180026 69.31201314 -26.58203576 76.78228205 -63.1953125 82.25268555 C-64.54437032 82.45610218 -65.8927198 82.66428499 -67.24023438 82.87768555 C-90.11929638 86.49945675 -113.22270295 87.34134076 -136.35449219 87.26074219 C-139.99951796 87.25000142 -143.64405119 87.26073711 -147.2890625 87.2734375 C-168.33929381 87.28613143 -189.64086362 86.86525074 -210.33984375 82.71484375 C-213.86697514 82.02598031 -217.37393669 81.52061451 -220.9375 81.0625 C-243.11615657 77.97433263 -272.23391096 71.85984479 -288 55 C-288.84304688 54.23429687 -288.84304688 54.23429687 -289.703125 53.453125 C-293.11868576 49.62605089 -294.02160224 44.27453245 -293.9375 39.3125 C-291.21520404 29.69372093 -283.23683914 24.42061465 -275 19.63671875 C-265.2363277 14.30992358 -255.20327445 9.42456809 -245 5 C-244.1028125 4.60683594 -243.205625 4.21367187 -242.28125 3.80859375 C-241.4046875 3.43863281 -240.528125 3.06867188 -239.625 2.6875 C-238.85414063 2.36136719 -238.08328125 2.03523437 -237.2890625 1.69921875 C-234.75393085 0.92483553 -232.63591073 0.87425868 -230 1 C-230.11562606 2.39664108 -230.242992 3.79231199 -230.375 5.1875 C-230.44460937 5.96480469 -230.51421875 6.74210938 -230.5859375 7.54296875 C-231.04144882 10.24595574 -231.970266 12.46467007 -233 15 C-233.74059705 17.67677133 -233.74059705 17.67677133 -234.125 20.4375 C-234.29257813 21.34371094 -234.46015625 22.24992187 -234.6328125 23.18359375 C-233.73712553 27.16995364 -231.6268841 28.36100113 -228.33105469 30.60522461 C-224.70054035 32.77752545 -220.98240936 34.48219459 -217.0625 36.0625 C-216.24201172 36.40047607 -215.42152344 36.73845215 -214.57617188 37.08666992 C-207.27735594 40.02428906 -199.85412878 42.37647715 -192.25245667 44.39070129 C-190.71035771 44.80784535 -189.17257619 45.24119336 -187.6388855 45.68826294 C-166.82151548 51.65908348 -145.34808248 52.63956209 -123.81445312 52.46655273 C-119.84203072 52.43725686 -115.8709251 52.44608036 -111.8984375 52.45898438 C-99.59967259 52.44794578 -87.65182978 52.21407128 -75.5769043 49.73242188 C-72.03770376 49.00772038 -68.52185447 48.50398495 -64.9375 48.0625 C-45.58378072 45.3489426 -11.85988709 39.20558558 1 23 C1.32210962 20.48093561 1.32210962 20.48093561 1.07421875 17.67578125 C1.01943359 16.64775391 0.96464844 15.61972656 0.90820312 14.56054688 C0.83537109 13.48869141 0.76253906 12.41683594 0.6875 11.3125 C0.62626953 10.22904297 0.56503906 9.14558594 0.50195312 8.02929688 C0.3486115 5.35171622 0.18075343 2.67584718 0 0 Z " fill="#FCFCFC" transform="translate(392,126)"/>
</svg>
